<svg width="64" height="65" viewBox="0 0 64 65" fill="none" xmlns="http://www.w3.org/2000/svg">
<rect y="0.787842" width="64" height="64" rx="12" fill="#40624E"/>
<path d="M37.9999 29.7878C38.791 29.7878 39.5644 29.5532 40.2222 29.1137C40.88 28.6742 41.3927 28.0495 41.6954 27.3186C41.9982 26.5877 42.0774 25.7834 41.923 25.0075C41.7687 24.2316 41.3877 23.5188 40.8283 22.9594C40.2689 22.4 39.5562 22.019 38.7802 21.8647C38.0043 21.7104 37.2001 21.7896 36.4692 22.0923C35.7382 22.3951 35.1135 22.9078 34.674 23.5656C34.2345 24.2234 33.9999 24.9967 33.9999 25.7878C33.9999 26.8487 34.4213 27.8661 35.1715 28.6163C35.9216 29.3664 36.939 29.7878 37.9999 29.7878ZM37.9999 23.7878C38.3954 23.7878 38.7821 23.9051 39.111 24.1249C39.4399 24.3447 39.6963 24.657 39.8476 25.0225C39.999 25.3879 40.0386 25.7901 39.9615 26.178C39.8843 26.566 39.6938 26.9224 39.4141 27.2021C39.1344 27.4818 38.778 27.6722 38.3901 27.7494C38.0021 27.8266 37.6 27.787 37.2345 27.6356C36.8691 27.4842 36.5567 27.2279 36.3369 26.899C36.1172 26.5701 35.9999 26.1834 35.9999 25.7878C35.9999 25.2574 36.2106 24.7487 36.5857 24.3736C36.9607 23.9986 37.4694 23.7878 37.9999 23.7878ZM43.7699 39.9428C43.9397 40.1462 44.022 40.4086 43.9985 40.6725C43.9751 40.9363 43.8479 41.1801 43.6449 41.3503C41.4749 43.1491 39.5374 43.7878 37.7699 43.7878C35.4474 43.7878 33.4174 42.6853 31.5286 41.6628C28.3599 39.9428 25.6236 38.4566 21.6449 41.7553C21.544 41.8404 21.4273 41.9047 21.3014 41.9445C21.1756 41.9842 21.0431 41.9987 20.9117 41.987C20.7802 41.9753 20.6523 41.9378 20.5355 41.8764C20.4186 41.8151 20.3151 41.7313 20.2307 41.6297C20.1464 41.5282 20.0831 41.4109 20.0443 41.2848C20.0055 41.1586 19.9921 41.0261 20.0048 40.8947C20.0175 40.7633 20.0561 40.6358 20.1183 40.5194C20.1805 40.403 20.2652 40.3001 20.3674 40.2166C25.3886 36.0553 29.1574 38.1003 32.4836 39.9053C35.6524 41.6266 38.3886 43.1116 42.3674 39.8128C42.571 39.6451 42.8327 39.5647 43.0954 39.589C43.3581 39.6134 43.6005 39.7406 43.7699 39.9428ZM20.3611 35.2153C20.2589 35.2989 20.1743 35.4018 20.1121 35.5182C20.0498 35.6345 20.0112 35.7621 19.9985 35.8934C19.9858 36.0248 19.9993 36.1574 20.038 36.2835C20.0768 36.4097 20.1402 36.5269 20.2245 36.6285C20.3088 36.73 20.4124 36.8139 20.5292 36.8752C20.6461 36.9365 20.7739 36.9741 20.9054 36.9858C21.0369 36.9974 21.1693 36.983 21.2952 36.9432C21.421 36.9035 21.5378 36.8392 21.6386 36.7541C25.6174 33.4566 28.3536 34.9416 31.5224 36.6616C33.4111 37.6866 35.4411 38.7866 37.7636 38.7866C39.5311 38.7866 41.4686 38.1478 43.6386 36.3491C43.7408 36.2656 43.8255 36.1627 43.8877 36.0463C43.9499 35.9299 43.9885 35.8024 44.0012 35.671C44.0139 35.5396 44.0005 35.407 43.9617 35.2809C43.9229 35.1547 43.8596 35.0375 43.7753 34.936C43.691 34.8344 43.5874 34.7506 43.4705 34.6893C43.3537 34.6279 43.2258 34.5904 43.0944 34.5787C42.9629 34.567 42.8304 34.5815 42.7046 34.6212C42.5787 34.661 42.462 34.7253 42.3611 34.8103C41.6382 35.4312 40.8257 35.9394 39.9511 36.3178L33.2211 29.5903C32.0164 28.3806 30.5838 27.4216 29.0062 26.7689C27.4286 26.1163 25.7372 25.7828 24.0299 25.7878H20.9999C20.7347 25.7878 20.4803 25.8932 20.2928 26.0807C20.1052 26.2683 19.9999 26.5226 19.9999 26.7878C19.9999 27.0531 20.1052 27.3074 20.2928 27.495C20.4803 27.6825 20.7347 27.7878 20.9999 27.7878H24.0299C25.8577 27.7843 27.6573 28.2381 29.2649 29.1078L25.5611 32.8091C23.9774 32.9566 22.2586 33.6428 20.3611 35.2153ZM31.8074 31.0066L37.5736 36.7716C35.8236 36.7178 34.2136 35.8478 32.4774 34.9053C31.1336 34.1753 29.7161 33.4053 28.1749 33.0241L30.9574 30.2416C31.2539 30.4815 31.5376 30.7369 31.8074 31.0066Z" fill="white"/>
</svg>
