<svg width="43" height="43" viewBox="0 0 43 43" fill="none" xmlns="http://www.w3.org/2000/svg">
<path d="M22.6537 36.8235C22.461 37.1132 22.161 37.3145 21.8198 37.3831C21.4786 37.4518 21.1241 37.382 20.8343 37.1893C15.8897 33.9 10.0813 32.1496 4.14258 32.1592C3.79448 32.1592 3.46064 32.0209 3.2145 31.7748C2.96836 31.5286 2.83008 31.1948 2.83008 30.8467C2.83008 30.4986 2.96836 30.1647 3.2145 29.9186C3.46064 29.6725 3.79448 29.5342 4.14258 29.5342C10.5986 29.5243 16.9129 31.4277 22.2879 35.004C22.5776 35.1968 22.779 35.4968 22.8476 35.838C22.9162 36.1792 22.8465 36.5337 22.6537 36.8235ZM4.14258 24.2842C3.79448 24.2842 3.46064 24.4225 3.2145 24.6686C2.96836 24.9147 2.83008 25.2486 2.83008 25.5967C2.83008 25.9448 2.96836 26.2786 3.2145 26.5248C3.46064 26.7709 3.79448 26.9092 4.14258 26.9092C13.42 26.8879 22.3317 30.5258 28.9439 37.0335C29.0659 37.1589 29.2117 37.2587 29.3728 37.327C29.534 37.3952 29.7071 37.4306 29.8821 37.4309C30.057 37.4313 30.2303 37.3967 30.3917 37.3291C30.5531 37.2615 30.6994 37.1624 30.8219 37.0375C30.9444 36.9125 31.0407 36.7644 31.1052 36.6017C31.1696 36.439 31.2008 36.2651 31.197 36.0901C31.1933 35.9152 31.1546 35.7428 31.0832 35.583C31.0118 35.4233 30.9092 35.2794 30.7814 35.1599C23.6798 28.1691 14.1077 24.2611 4.14258 24.2842ZM38.2676 26.9092C35.5848 26.9074 32.9105 27.2096 30.2958 27.8099C31.197 28.4935 32.072 29.2132 32.9208 29.9689C34.6883 29.6794 36.4765 29.534 38.2676 29.5342C38.6157 29.5342 38.9495 29.6725 39.1957 29.9186C39.4418 30.1647 39.5801 30.4986 39.5801 30.8467C39.5801 31.1948 39.4418 31.5286 39.1957 31.7748C38.9495 32.0209 38.6157 32.1592 38.2676 32.1592C37.2832 32.1592 36.3103 32.2068 35.3391 32.3003C36.2491 33.2486 37.1208 34.2406 37.9542 35.2764C38.0684 35.4101 38.1545 35.5653 38.2075 35.733C38.2605 35.9006 38.2793 36.0772 38.2628 36.2522C38.2462 36.4272 38.1947 36.5971 38.1112 36.7519C38.0277 36.9066 37.914 37.043 37.7768 37.1529C37.6396 37.2628 37.4817 37.3441 37.3125 37.3918C37.1433 37.4396 36.9662 37.4528 36.7918 37.4308C36.6174 37.4088 36.4492 37.352 36.2971 37.2637C36.1451 37.1755 36.0123 37.0576 35.9067 36.917C32.1024 32.1465 27.27 28.2966 21.7699 25.6547C16.2699 23.0127 10.2442 21.6469 4.14258 21.6592C3.79448 21.6592 3.46064 21.5209 3.2145 21.2748C2.96836 21.0286 2.83008 20.6948 2.83008 20.3467C2.83008 19.9986 2.96836 19.6647 3.2145 19.4186C3.46064 19.1725 3.79448 19.0342 4.14258 19.0342C6.78385 19.0347 9.41964 19.2746 12.0176 19.7511V13.7842C12.0176 13.5804 12.065 13.3795 12.1561 13.1972C12.2473 13.015 12.3796 12.8564 12.5426 12.7342L23.0426 4.85918C23.2698 4.68879 23.5461 4.59668 23.8301 4.59668C24.1141 4.59668 24.3904 4.68879 24.6176 4.85918L35.1176 12.7342C35.2806 12.8564 35.4129 13.015 35.504 13.1972C35.5951 13.3795 35.6426 13.5804 35.6426 13.7842V19.1146C36.5137 19.0637 37.3882 19.0342 38.2676 19.0342C38.6157 19.0342 38.9495 19.1725 39.1957 19.4186C39.4418 19.6647 39.5801 19.9986 39.5801 20.3467C39.5801 20.6948 39.4418 21.0286 39.1957 21.2748C38.9495 21.5209 38.6157 21.6592 38.2676 21.6592C33.5543 21.6502 28.8758 22.4658 24.4437 24.0693C25.4762 24.6161 26.4857 25.2057 27.4723 25.8379C30.9776 24.8049 34.6132 24.2816 38.2676 24.2842C38.6157 24.2842 38.9495 24.4225 39.1957 24.6686C39.4418 24.9147 39.5801 25.2486 39.5801 25.5967C39.5801 25.9448 39.4418 26.2786 39.1957 26.5248C38.9495 26.7709 38.6157 26.9092 38.2676 26.9092ZM19.8926 15.0967H27.7676C28.1157 15.0967 28.4495 15.235 28.6957 15.4811C28.9418 15.7272 29.0801 16.0611 29.0801 16.4092V20.0087C30.3795 19.7287 31.692 19.51 33.0176 19.3525V14.4404L23.8301 7.5498L14.6426 14.4404V20.3155C15.9759 20.6436 17.2884 21.0363 18.5801 21.4935V16.4092C18.5801 16.0611 18.7184 15.7272 18.9645 15.4811C19.2106 15.235 19.5445 15.0967 19.8926 15.0967ZM21.2166 22.5238C22.9209 21.792 24.6707 21.1711 26.4551 20.665V17.7217H21.2051V22.5189L21.2166 22.5238Z" fill="#40624E"/>
</svg>
