<svg width="41" height="41" viewBox="0 0 41 41" fill="none" xmlns="http://www.w3.org/2000/svg">
<path d="M11.9533 31.5039C12.0846 31.6026 12.2342 31.6745 12.3934 31.7154C12.5525 31.7563 12.7182 31.7653 12.8809 31.7421C13.0436 31.7189 13.2001 31.6638 13.3415 31.5801C13.4829 31.4963 13.6063 31.3855 13.7048 31.2539C14.4617 30.2448 15.443 29.4258 16.5712 28.8617C17.6994 28.2976 18.9435 28.0039 20.2048 28.0039C21.4662 28.0039 22.7102 28.2976 23.8384 28.8617C24.9666 29.4258 25.948 30.2448 26.7048 31.2539C26.8033 31.3852 26.9267 31.4959 27.068 31.5795C27.2092 31.6631 27.3656 31.7181 27.5281 31.7413C27.6906 31.7646 27.856 31.7555 28.0151 31.7148C28.1741 31.6741 28.3235 31.6024 28.4548 31.5039C28.5862 31.4054 28.6968 31.282 28.7804 31.1408C28.8641 30.9995 28.9191 30.8432 28.9423 30.6807C28.9655 30.5182 28.9565 30.3527 28.9157 30.1937C28.875 30.0347 28.8033 29.8852 28.7048 29.7539C27.598 28.2699 26.122 27.1015 24.4236 26.3648C25.3543 25.5151 26.0065 24.4037 26.2943 23.1767C26.5822 21.9497 26.4924 20.6643 26.0366 19.4893C25.5809 18.3142 24.7806 17.3044 23.7407 16.5923C22.7008 15.8802 21.4699 15.4992 20.2095 15.4992C18.9492 15.4992 17.7183 15.8802 16.6784 16.5923C15.6385 17.3044 14.8381 18.3142 14.3824 19.4893C13.9267 20.6643 13.8369 21.9497 14.1247 23.1767C14.4126 24.4037 15.0647 25.5151 15.9955 26.3648C14.2936 27.1001 12.8143 28.2687 11.7048 29.7539C11.5058 30.0189 11.4201 30.3522 11.4667 30.6804C11.5133 31.0085 11.6883 31.3048 11.9533 31.5039ZM20.2048 18.0039C20.9465 18.0039 21.6715 18.2238 22.2882 18.6359C22.9049 19.048 23.3856 19.6336 23.6694 20.3188C23.9532 21.0041 24.0275 21.7581 23.8828 22.4855C23.7381 23.2129 23.3809 23.8811 22.8565 24.4056C22.332 24.93 21.6639 25.2872 20.9364 25.4319C20.209 25.5765 19.455 25.5023 18.7698 25.2185C18.0845 24.9346 17.4989 24.454 17.0868 23.8373C16.6748 23.2206 16.4548 22.4956 16.4548 21.7539C16.4548 20.7593 16.8499 19.8055 17.5532 19.1023C18.2564 18.399 19.2103 18.0039 20.2048 18.0039ZM31.4548 4.25391H8.95483C8.29179 4.25391 7.65591 4.5173 7.18707 4.98614C6.71823 5.45498 6.45483 6.09087 6.45483 6.75391V34.2539C6.45483 34.9169 6.71823 35.5528 7.18707 36.0217C7.65591 36.4905 8.29179 36.7539 8.95483 36.7539H31.4548C32.1179 36.7539 32.7538 36.4905 33.2226 36.0217C33.6914 35.5528 33.9548 34.9169 33.9548 34.2539V6.75391C33.9548 6.09087 33.6914 5.45498 33.2226 4.98614C32.7538 4.5173 32.1179 4.25391 31.4548 4.25391ZM31.4548 34.2539H8.95483V6.75391H31.4548V34.2539ZM13.9548 10.5039C13.9548 10.1724 14.0865 9.85444 14.321 9.62002C14.5554 9.3856 14.8733 9.25391 15.2048 9.25391H25.2048C25.5364 9.25391 25.8543 9.3856 26.0887 9.62002C26.3231 9.85444 26.4548 10.1724 26.4548 10.5039C26.4548 10.8354 26.3231 11.1534 26.0887 11.3878C25.8543 11.6222 25.5364 11.7539 25.2048 11.7539H15.2048C14.8733 11.7539 14.5554 11.6222 14.321 11.3878C14.0865 11.1534 13.9548 10.8354 13.9548 10.5039Z" fill="#40624E"/>
</svg>
